<svg width="385" height="385" viewBox="0 0 385 385" fill="none" xmlns="http://www.w3.org/2000/svg">
<path d="M36.8457 93.9941C36.8457 92.7483 35.8357 91.7383 34.5898 91.7383C33.344 91.7383 32.334 92.7483 32.334 93.9941V136.855C32.334 138.101 33.344 139.111 34.5898 139.111C35.8357 139.111 36.8457 138.101 36.8457 136.855V93.9941Z" fill="black"/>
<path d="M77.4512 91.7383H34.5898C33.344 91.7383 32.334 92.7483 32.334 93.9941C32.334 95.24 33.344 96.25 34.5898 96.25H77.4512C78.697 96.25 79.707 95.24 79.707 93.9941C79.707 92.7483 78.697 91.7383 77.4512 91.7383Z" fill="black"/>
<path d="M350.034 96.25C351.28 96.25 352.29 95.24 352.29 93.9941C352.29 92.7483 351.28 91.7383 350.034 91.7383H307.173C305.927 91.7383 304.917 92.7483 304.917 93.9941C304.917 95.24 305.927 96.25 307.173 96.25H350.034Z" fill="black"/>
<path d="M352.29 136.855V93.9941C352.29 92.7483 351.28 91.7383 350.034 91.7383C348.788 91.7383 347.778 92.7483 347.778 93.9941V136.855C347.778 138.101 348.788 139.111 350.034 139.111C351.28 139.111 352.29 138.101 352.29 136.855Z" fill="black"/>
<path d="M34.5898 288.75C33.344 288.75 32.334 289.76 32.334 291.006C32.334 292.252 33.344 293.262 34.5898 293.262H77.4512C78.697 293.262 79.707 292.252 79.707 291.006C79.707 289.76 78.697 288.75 77.4512 288.75H34.5898Z" fill="black"/>
<path d="M32.334 248.145V291.006C32.334 292.252 33.344 293.262 34.5898 293.262C35.8357 293.262 36.8457 292.252 36.8457 291.006V248.145C36.8457 246.899 35.8357 245.889 34.5898 245.889C33.344 245.889 32.334 246.899 32.334 248.145Z" fill="black"/>
<path d="M347.778 291.006C347.778 292.252 348.788 293.262 350.034 293.262C351.28 293.262 352.29 292.252 352.29 291.006V248.145C352.29 246.899 351.28 245.889 350.034 245.889C348.788 245.889 347.778 246.899 347.778 248.145V291.006Z" fill="black"/>
<path d="M307.173 293.262H350.034C351.28 293.262 352.29 292.252 352.29 291.006C352.29 289.76 351.28 288.75 350.034 288.75H307.173C305.927 288.75 304.917 289.76 304.917 291.006C304.917 292.252 305.927 293.262 307.173 293.262Z" fill="black"/>
<path d="M305.669 115.425H62.0361C58.7138 115.425 56.0205 118.118 56.0205 121.44V244.761C56.0205 248.083 58.7138 250.776 62.0361 250.776H305.669C308.991 250.776 311.685 248.083 311.685 244.761V121.44C311.685 118.118 308.991 115.425 305.669 115.425Z" fill="black"/>
<path d="M322.588 134.224H78.9551C75.6327 134.224 72.9395 136.917 72.9395 140.239V263.56C72.9395 266.882 75.6327 269.575 78.9551 269.575H322.588C325.91 269.575 328.604 266.882 328.604 263.56V140.239C328.604 136.917 325.91 134.224 322.588 134.224Z" fill="#3F37C9"/>
<path d="M308.301 176.333H158.286C156.417 176.333 154.902 177.848 154.902 179.717C154.902 181.586 156.417 183.101 158.286 183.101H308.301C310.17 183.101 311.685 181.586 311.685 179.717C311.685 177.848 310.17 176.333 308.301 176.333Z" fill="#BDBFFF"/>
<path d="M308.301 195.132H213.179C211.31 195.132 209.795 196.647 209.795 198.516C209.795 200.384 211.31 201.899 213.179 201.899H308.301C310.17 201.899 311.685 200.384 311.685 198.516C311.685 196.647 310.17 195.132 308.301 195.132Z" fill="#BDBFFF"/>
<path d="M308.301 154.902H179.341C177.472 154.902 175.957 156.417 175.957 158.286C175.957 160.155 177.472 161.67 179.341 161.67H308.301C310.17 161.67 311.685 160.155 311.685 158.286C311.685 156.417 310.17 154.902 308.301 154.902Z" fill="#BDBFFF"/>
</svg>
